<svg aria-hidden="true" style="position: absolute; width: 0; height: 0; overflow: hidden;" version="1.1" xmlns="http://www.w3.org/2000/svg" xmlns:xlink="http://www.w3.org/1999/xlink">
<defs>
<symbol id="credit-card" data-name="credit-card" viewBox="0 0 24 24">
  <title>credit-card</title>
  <path d="m3,13c0,1.103.897,2,2,2s2-.897,2-2-.897-2-2-2-2,.897-2,2Zm3,0c0,.551-.448,1-1,1s-1-.449-1-1,.448-1,1-1,1,.449,1,1ZM19.5,0H4.5C2.019,0,0,2.019,0,4.5v9c0,2.481,2.019,4.5,4.5,4.5h9c.276,0,.5-.224.5-.5s-.224-.5-.5-.5H4.5c-1.93,0-3.5-1.57-3.5-3.5v-7.5h22v5.5c0,.276.224.5.5.5s.5-.224.5-.5v-7c0-2.481-2.019-4.5-4.5-4.5ZM1,5v-.5c0-1.93,1.57-3.5,3.5-3.5h15c1.93,0,3.5,1.57,3.5,3.5v.5H1Zm21,10c0-1.654-1.346-3-3-3s-3,1.346-3,3,1.346,3,3,3,3-1.346,3-3Zm-5,0c0-1.103.897-2,2-2s2,.897,2,2-.897,2-2,2-2-.897-2-2Zm6.997,8.444c.031.274-.166.522-.44.553-.02.002-.038.003-.058.003-.251,0-.467-.188-.496-.444-.229-2.027-1.951-3.556-4.003-3.556s-3.773,1.529-4.003,3.556c-.031.275-.284.474-.554.44-.274-.031-.472-.278-.44-.553.288-2.534,2.436-4.444,4.997-4.444s4.709,1.91,4.997,4.444Z"/>
</symbol>
<symbol id="dashboard-monitor" data-name="dashboard-monitor" viewBox="0 0 24 24">
  <title>dashboard-monitor</title>
  <path d="M21,5.5c0,.276-.224,.5-.5,.5h-3c-.276,0-.5-.224-.5-.5s.224-.5,.5-.5h3c.276,0,.5,.224,.5,.5Zm-.5,2.5h-3c-.276,0-.5,.224-.5,.5s.224,.5,.5,.5h3c.276,0,.5-.224,.5-.5s-.224-.5-.5-.5Zm0,3h-3c-.276,0-.5,.224-.5,.5s.224,.5,.5,.5h3c.276,0,.5-.224,.5-.5s-.224-.5-.5-.5Zm0,3h-3c-.276,0-.5,.224-.5,.5s.224,.5,.5,.5h3c.276,0,.5-.224,.5-.5s-.224-.5-.5-.5Zm-5.5-4c0,1.649-.669,3.145-1.75,4.231-.003,.003-.004,.008-.008,.011s-.008,.004-.011,.008c-1.086,1.081-2.581,1.75-4.231,1.75-3.309,0-6-2.691-6-6s2.691-6,6-6,6,2.691,6,6Zm-5.5-4.949v4.535c0,.131,.054,.26,.146,.354l3.207,3.207c.705-.862,1.146-1.948,1.146-3.146,0-2.586-1.98-4.694-4.5-4.949Zm-.5,9.949c1.198,0,2.284-.441,3.146-1.146l-3.207-3.207c-.283-.283-.439-.66-.439-1.061V5.051c-2.52,.255-4.5,2.364-4.5,4.949,0,2.757,2.243,5,5,5ZM24,5.5V14.5c0,2.481-2.019,4.5-4.5,4.5h-7v3h5c.276,0,.5,.224,.5,.5s-.224,.5-.5,.5H6.5c-.276,0-.5-.224-.5-.5s.224-.5,.5-.5h5v-3H4.5c-2.481,0-4.5-2.019-4.5-4.5V5.5C0,3.019,2.019,1,4.5,1h15c2.481,0,4.5,2.019,4.5,4.5Zm-1,0c0-1.93-1.57-3.5-3.5-3.5H4.5c-1.93,0-3.5,1.57-3.5,3.5V14.5c0,1.93,1.57,3.5,3.5,3.5h15c1.93,0,3.5-1.57,3.5-3.5V5.5Z"/>
</symbol>
<symbol id="growth-chart" data-name="growth-chart" viewBox="0 0 24 24">
  <title>growth-chart</title>
  <path d="m17,14.495c0,.664.446,1.255,1.084,1.438l4.106,1.174c1.065.304,1.81,1.29,1.81,2.398,0,1.376-1.119,2.495-2.495,2.495h-1.005v1.5c0,.276-.224.5-.5.5s-.5-.224-.5-.5v-1.5h-1.005c-1.376,0-2.495-1.119-2.495-2.495,0-.276.224-.5.5-.5s.5.224.5.5c0,.824.671,1.495,1.495,1.495h3.01c.824,0,1.495-.671,1.495-1.495,0-.664-.446-1.255-1.084-1.438l-4.106-1.174c-1.065-.304-1.81-1.29-1.81-2.398,0-1.376,1.119-2.495,2.495-2.495h1.005v-1.5c0-.276.224-.5.5-.5s.5.224.5.5v1.5h1.005c1.376,0,2.495,1.119,2.495,2.495,0,.276-.224.5-.5.5s-.5-.224-.5-.5c0-.824-.671-1.495-1.495-1.495h-3.01c-.824,0-1.495.671-1.495,1.495ZM22.5,0h-5c-.276,0-.5.224-.5.5s.224.5.5.5h4.793l-5.512,5.512c-.707.706-1.855.706-2.562,0l-2.73-2.73c-1.096-1.096-2.881-1.096-3.977,0L.146,11.146c-.195.195-.195.512,0,.707.098.098.226.146.354.146s.256-.049.354-.146l7.365-7.365c.707-.706,1.855-.706,2.562,0l2.73,2.73c1.096,1.096,2.881,1.096,3.977,0l5.512-5.512v4.793c0,.276.224.5.5.5s.5-.224.5-.5V1.5c0-.827-.673-1.5-1.5-1.5Zm-10,9c-.276,0-.5.224-.5.5v14c0,.276.224.5.5.5s.5-.224.5-.5v-14c0-.276-.224-.5-.5-.5Zm-5-1c-.276,0-.5.224-.5.5v15c0,.276.224.5.5.5s.5-.224.5-.5v-15c0-.276-.224-.5-.5-.5Zm-5,5c-.276,0-.5.224-.5.5v10c0,.276.224.5.5.5s.5-.224.5-.5v-10c0-.276-.224-.5-.5-.5Z"/>
</symbol>
<symbol id="delete-user" data-name="delete-user" viewBox="0 0 24 24">
  <title>delete-user</title>
  <path d="m9,12c3.309,0,6-2.691,6-6S12.309,0,9,0,3,2.691,3,6s2.691,6,6,6Zm0-11c2.757,0,5,2.243,5,5s-2.243,5-5,5-5-2.243-5-5S6.243,1,9,1Zm9,17.5v5.5h-1v-5.5c0-1.93-1.57-3.5-3.5-3.5H4.5c-1.93,0-3.5,1.57-3.5,3.5v5.5H0v-5.5c0-2.481,2.019-4.5,4.5-4.5h9c2.481,0,4.5,2.019,4.5,4.5Zm3.19-8.983l2.784,2.784-.707.707-2.784-2.784-2.784,2.784-.707-.707,2.784-2.784-2.784-2.784.707-.707,2.784,2.784,2.784-2.784.707.707-2.784,2.784Z"/>
</symbol>
<symbol id="sack-dollar" data-name="sack-dollar" viewBox="0 0 24 24">
  <title>sack-dollar</title>
  <path d="M13.83,5.268c1.11-.592,2.461-1.581,3.06-3.087,.193-.486,.133-1.018-.166-1.458-.307-.453-.815-.724-1.36-.724h-6.728c-.544,0-1.053,.271-1.36,.724-.299,.44-.359,.972-.167,1.458,.599,1.506,1.95,2.495,3.06,3.087C5.238,6.62,1,13.094,1,18.25c0,3.17,2.58,5.75,5.75,5.75h10.5c3.17,0,5.75-2.58,5.75-5.75,0-5.156-4.238-11.63-9.17-12.982ZM8.039,1.812c-.094-.236,0-.432,.064-.526,.121-.179,.32-.285,.533-.285h6.728c.212,0,.412,.106,.533,.285,.064,.095,.158,.29,.064,.527-.788,1.982-3.337,2.952-3.961,3.163-.625-.21-3.169-1.174-3.96-3.164Zm9.211,21.188H6.75c-2.619,0-4.75-2.131-4.75-4.75,0-5.349,4.849-12.25,10-12.25s10,6.901,10,12.25c0,2.619-2.131,4.75-4.75,4.75Zm-1.25-5.626c0,1.448-1.178,2.626-2.626,2.626h-.874v1.5c0,.276-.224,.5-.5,.5s-.5-.224-.5-.5v-1.5h-.926c-.979,0-1.891-.526-2.381-1.374-.139-.239-.057-.545,.182-.683,.239-.14,.544-.057,.683,.182,.312,.54,.894,.875,1.516,.875h2.8c.896,0,1.626-.729,1.626-1.626,0-.803-.575-1.478-1.368-1.605l-3.422-.55c-1.28-.206-2.209-1.296-2.209-2.593,0-1.448,1.178-2.626,2.626-2.626h.874v-1.5c0-.276,.224-.5,.5-.5s.5,.224,.5,.5v1.5h.926c.978,0,1.891,.527,2.381,1.375,.139,.239,.057,.545-.182,.683-.241,.138-.544,.056-.683-.182-.312-.54-.894-.875-1.516-.875h-2.8c-.896,0-1.626,.729-1.626,1.626,0,.803,.575,1.478,1.368,1.605l3.422,.55c1.28,.206,2.209,1.296,2.209,2.593Z"/>
</symbol>
<symbol id="instant-loans" data-name="instant-loans" viewBox="0 0 24 24">
  <title>instant-loans</title>
  <path d="m23.181,9.655c-.496-.452-1.141-.674-1.809-.652-.67.032-1.288.322-1.739.818l-3.732,4.102c-.314-1.108-1.335-1.922-2.543-1.922h-.261c.559-.582.903-1.37.903-2.237,0-2.777-2.082-5.598-4.487-6.481.467-.317.958-.749,1.3-1.312.243-.4.25-.884.019-1.296-.233-.416-.673-.673-1.146-.673h-3.371c-.474,0-.913.258-1.146.673-.231.412-.225.896.019,1.296.342.563.833.995,1.3,1.312-2.405.883-4.487,3.704-4.487,6.481,0,.889.362,1.696.946,2.281-1.668.266-2.946,1.715-2.946,3.456v5c0,1.93,1.57,3.5,3.5,3.5h5.965c2.707,0,5.292-1.159,7.093-3.181l6.806-7.639c.911-1.022.829-2.604-.183-3.526ZM6.04,1.45c-.073-.121-.031-.231,0-.287.021-.039.105-.164.275-.164h3.371c.17,0,.254.125.275.164.03.055.072.166,0,.287-.521.855-1.562,1.35-1.96,1.514-.398-.165-1.439-.659-1.96-1.514Zm1.96,2.55c2.43,0,5,2.962,5,5.763,0,1.234-1.01,2.237-2.25,2.237h-5.5c-1.24,0-2.25-1.003-2.25-2.237,0-2.801,2.57-5.763,5-5.763Zm14.617,8.516l-6.806,7.639c-1.611,1.809-3.925,2.846-6.347,2.846H3.5c-1.379,0-2.5-1.122-2.5-2.5v-5c0-1.378,1.121-2.5,2.5-2.5h9.857c.905,0,1.643.737,1.643,1.642,0,.812-.606,1.511-1.398,1.624l-6.161.737c-.274.033-.47.282-.437.556.032.274.282.464.556.437l6.173-.739c1.021-.146,1.844-.878,2.145-1.824l4.496-4.94c.271-.298.643-.473,1.046-.492.398-.018.789.12,1.088.393.609.555.658,1.506.11,2.122Z"/>
</symbol>
<symbol id="money-transfer" data-name="money-transfer" viewBox="0 0 24 24">
  <title>money-transfer</title>
  <path d="m8,12c0,2.206,1.794,4,4,4s4-1.794,4-4-1.794-4-4-4-4,1.794-4,4Zm7,0c0,1.654-1.346,3-3,3s-3-1.346-3-3,1.346-3,3-3,3,1.346,3,3ZM4,7c.552,0,1,.448,1,1s-.448,1-1,1-1-.448-1-1,.448-1,1-1Zm17,9c0,.552-.448,1-1,1s-1-.448-1-1,.448-1,1-1,1,.448,1,1ZM0,15.5v-7c0-2.481,2.019-4.5,4.5-4.5h18.155l-2.578-2.578c-.195-.195-.195-.512,0-.707s.512-.195.707,0l2.784,2.784c.223.223.421.501.421,1.001s-.198.778-.421,1.001l-2.784,2.784c-.098.098-.226.146-.354.146s-.256-.049-.354-.146c-.195-.195-.195-.512,0-.707l2.578-2.578H4.5c-1.93,0-3.5,1.57-3.5,3.5v7c0,.276-.224.5-.5.5s-.5-.224-.5-.5Zm24-7v7c0,2.481-2.019,4.5-4.5,4.5H1.345l2.578,2.578c.195.195.195.512,0,.707-.098.098-.226.146-.354.146s-.256-.049-.354-.146l-2.784-2.784c-.223-.223-.421-.501-.421-1.001s.198-.778.421-1.001l2.784-2.784c.195-.195.512-.195.707,0s.195.512,0,.707l-2.578,2.578h18.155c1.93,0,3.5-1.57,3.5-3.5v-7c0-.276.224-.5.5-.5s.5.224.5.5Z"/>
</symbol>
</defs>
</svg>
