<svg width="242" height="880" viewBox="0 0 242 880" fill="none" xmlns="http://www.w3.org/2000/svg">
<path d="M200.176 667.498C178.956 649.12 151.276 638 121 638C90.7631 638 63.1166 649.091 41.9067 667.426C53.8511 699.54 84.7813 722.419 121.055 722.419C157.301 722.419 188.213 699.575 200.176 667.498Z" fill="url(#paint0_radial_935_7)"/>
<path d="M212.538 679.865C180.443 691.819 157.581 722.74 157.581 759C157.581 795.26 180.443 826.181 212.538 838.135C230.895 816.92 242 789.257 242 759C242 728.743 230.895 701.08 212.538 679.865Z" fill="url(#paint1_radial_935_7)"/>
<path d="M200.135 850.538C188.181 818.443 157.26 795.581 121 795.581C84.7399 795.581 53.8192 818.443 41.8651 850.538C63.0804 868.895 90.7433 880 121 880C151.257 880 178.92 868.895 200.135 850.538Z" fill="url(#paint2_radial_935_7)"/>
<path d="M84.4186 759.052C84.4186 795.299 61.5737 826.211 29.4965 838.174C11.1192 816.954 0 789.275 0 759C0 728.762 11.0916 701.115 29.4282 679.905C61.5413 691.849 84.4186 722.779 84.4186 759.052Z" fill="url(#paint3_radial_935_7)"/>
<path d="M19.784 476.232L29.256 476.232L29.256 500.552L109 500.552L109 512.2L29.256 512.2L29.256 536.648L19.784 536.648L19.784 476.232ZM37.576 427.078C37.576 421.787 38.728 417.009 41.032 412.742C43.2507 408.475 46.6213 405.147 51.144 402.758C55.6667 400.283 61.1707 399.046 67.656 399.046L109 399.046L109 410.566L69.32 410.566C62.3227 410.566 56.9893 412.315 53.32 415.814C49.5653 419.313 47.688 424.091 47.688 430.15C47.688 436.294 49.608 441.201 53.448 444.87C57.288 448.454 62.8773 450.246 70.216 450.246L109 450.246L109 461.894L14.28 461.894L14.28 450.246L48.84 450.246C45.256 447.942 42.4827 444.785 40.52 440.774C38.5573 436.678 37.576 432.113 37.576 427.078ZM71.24 316.019C73.4587 316.019 75.8053 316.147 78.28 316.403L78.28 372.467C85.192 372.04 90.6107 369.694 94.536 365.427C98.376 361.075 100.296 355.827 100.296 349.683C100.296 344.648 99.144 340.467 96.84 337.139C94.4507 333.726 91.2933 331.336 87.368 329.971L87.368 317.427C94.1093 319.304 99.6133 323.059 103.88 328.691C108.061 334.323 110.152 341.32 110.152 349.683C110.152 356.339 108.659 362.312 105.672 367.603C102.685 372.808 98.4613 376.904 93 379.891C87.4533 382.878 81.0533 384.371 73.8 384.371C66.5467 384.371 60.1893 382.92 54.728 380.019C49.2667 377.118 45.0853 373.064 42.184 367.859C39.1973 362.568 37.704 356.51 37.704 349.683C37.704 343.027 39.1547 337.139 42.056 332.019C44.9573 326.899 48.968 322.974 54.088 320.243C59.1227 317.427 64.84 316.019 71.24 316.019ZM68.808 328.051C64.3707 328.051 60.5733 329.032 57.416 330.995C54.1733 332.958 51.7413 335.646 50.12 339.059C48.4133 342.387 47.56 346.099 47.56 350.195C47.56 356.083 49.4373 361.118 53.192 365.299C56.9467 369.395 62.152 371.742 68.808 372.339L68.808 328.051ZM176.176 481.48C177.115 476.445 179.632 472.307 183.728 469.064C187.824 465.821 192.517 464.2 197.808 464.2C202.587 464.2 206.811 465.395 210.48 467.784C214.064 470.088 216.88 473.459 218.928 477.896C220.976 482.333 222 487.581 222 493.64L222 532.168L132.656 532.168L132.656 495.304C132.656 489.245 133.637 484.04 135.6 479.688C137.563 475.251 140.293 471.923 143.792 469.704C147.291 467.4 151.259 466.248 155.696 466.248C160.901 466.248 165.253 467.656 168.752 470.472C172.251 473.203 174.725 476.872 176.176 481.48ZM169.52 514.248L169.52 497.864C169.52 493.597 168.581 490.312 166.704 488.008C164.741 485.704 161.968 484.552 158.384 484.552C154.8 484.552 152.027 485.704 150.064 488.008C148.101 490.312 147.12 493.597 147.12 497.864L147.12 514.248L169.52 514.248ZM207.408 496.2C207.408 491.848 206.384 488.477 204.336 486.088C202.288 483.613 199.387 482.376 195.632 482.376C191.792 482.376 188.805 483.656 186.672 486.216C184.453 488.776 183.344 492.232 183.344 496.584L183.344 514.248L207.408 514.248L207.408 496.2ZM204.976 395.134L204.976 430.718L222 436.606L222 455.422L132.528 423.294L132.528 402.43L222 370.302L222 389.246L204.976 395.134ZM190.64 399.998L153.264 412.926L190.64 425.854L190.64 399.998ZM222 281.877L222 299.797L160.688 340.373L222 340.373L222 358.293L132.528 358.293L132.528 340.373L193.968 299.797L132.528 299.797L132.528 281.877L222 281.877ZM222 213.736L182.192 246.248L222 246.248L222 264.168L132.656 264.168L132.656 246.248L172.72 246.248L132.656 213.736L132.656 192.104L176.944 228.968L222 191.08L222 213.736ZM132.656 161.373L222 161.373L222 179.293L132.656 179.293L132.656 161.373ZM222.896 112.82C222.896 119.049 221.829 124.681 219.696 129.716C217.563 134.665 214.491 138.591 210.48 141.492C206.469 144.393 201.733 145.887 196.272 145.972L196.272 126.772C199.941 126.516 202.843 125.236 204.976 122.932C207.109 120.543 208.176 117.3 208.176 113.204C208.176 109.023 207.195 105.737 205.232 103.348C203.184 100.959 200.539 99.764 197.296 99.764C194.651 99.764 192.475 100.575 190.768 102.196C189.061 103.817 187.739 105.865 186.8 108.34C185.776 110.729 184.667 114.057 183.472 118.324C181.765 124.127 180.101 128.863 178.48 132.532C176.773 136.116 174.256 139.231 170.928 141.876C167.515 144.436 162.992 145.716 157.36 145.716C152.069 145.716 147.461 144.393 143.536 141.748C139.611 139.103 136.624 135.391 134.576 130.612C132.443 125.833 131.376 120.372 131.376 114.228C131.376 105.012 133.637 97.5453 138.16 91.828C142.597 86.0253 148.827 82.8253 156.848 82.228L156.848 101.94C153.776 102.111 151.259 103.433 149.296 105.908C147.248 108.297 146.224 111.497 146.224 115.508C146.224 119.007 147.12 121.823 148.912 123.956C150.704 126.004 153.307 127.028 156.72 127.028C159.109 127.028 161.115 126.26 162.736 124.724C164.272 123.103 165.552 121.14 166.576 118.836C167.515 116.447 168.624 113.119 169.904 108.852C171.611 103.049 173.317 98.3133 175.024 94.644C176.731 90.9747 179.291 87.8173 182.704 85.172C186.117 82.5267 190.597 81.204 196.144 81.204C200.923 81.204 205.36 82.4413 209.456 84.916C213.552 87.3907 216.837 91.0173 219.312 95.796C221.701 100.575 222.896 106.249 222.896 112.82ZM132.656 4.86799L147.12 4.86799L147.12 28.676L222 28.676L222 46.596L147.12 46.596L147.12 70.404L132.656 70.404L132.656 4.86799Z" fill="#034752"/>
<defs>
<radialGradient id="paint0_radial_935_7" cx="0" cy="0" r="1" gradientUnits="userSpaceOnUse" gradientTransform="translate(121 759) rotate(90) scale(121)">
<stop stop-color="#94FF37"/>
<stop offset="1" stop-color="#00F180"/>
</radialGradient>
<radialGradient id="paint1_radial_935_7" cx="0" cy="0" r="1" gradientUnits="userSpaceOnUse" gradientTransform="translate(121 759) rotate(90) scale(121)">
<stop stop-color="#94FF37"/>
<stop offset="1" stop-color="#00F180"/>
</radialGradient>
<radialGradient id="paint2_radial_935_7" cx="0" cy="0" r="1" gradientUnits="userSpaceOnUse" gradientTransform="translate(121 759) rotate(90) scale(121)">
<stop stop-color="#94FF37"/>
<stop offset="1" stop-color="#00F180"/>
</radialGradient>
<radialGradient id="paint3_radial_935_7" cx="0" cy="0" r="1" gradientUnits="userSpaceOnUse" gradientTransform="translate(121 759) rotate(90) scale(121)">
<stop stop-color="#94FF37"/>
<stop offset="1" stop-color="#00F180"/>
</radialGradient>
</defs>
</svg>
