<svg width="880" height="242" viewBox="0 0 880 242" fill="none" xmlns="http://www.w3.org/2000/svg">
<path d="M212.502 200.176C230.88 178.956 242 151.276 242 121C242 90.7631 230.909 63.1166 212.574 41.9067C180.46 53.8511 157.581 84.7813 157.581 121.055C157.581 157.301 180.425 188.213 212.502 200.176Z" fill="url(#paint0_radial_935_10)"/>
<path d="M200.135 212.538C188.181 180.443 157.26 157.581 121 157.581C84.7399 157.581 53.8192 180.442 41.8651 212.538C63.0804 230.895 90.7433 242 121 242C151.257 242 178.92 230.895 200.135 212.538Z" fill="url(#paint1_radial_935_10)"/>
<path d="M29.4624 200.135C61.5575 188.181 84.4186 157.26 84.4186 121C84.4186 84.7399 61.5575 53.8192 29.4624 41.8651C11.1054 63.0804 -3.96652e-06 90.7433 -5.28908e-06 121C-6.61164e-06 151.257 11.1054 178.92 29.4624 200.135Z" fill="url(#paint2_radial_935_10)"/>
<path d="M120.948 84.4186C84.7006 84.4186 53.789 61.5737 41.8256 29.4965C63.0461 11.1191 90.7245 -6.61246e-06 121 -5.28908e-06C151.238 -3.96734e-06 178.885 11.0916 200.095 29.4282C188.151 61.5413 157.221 84.4186 120.948 84.4186Z" fill="url(#paint3_radial_935_10)"/>
<path d="M403.768 19.784V29.256H379.448V109H367.8V29.256H343.352V19.784H403.768ZM452.922 37.576C458.213 37.576 462.991 38.728 467.258 41.032C471.525 43.2507 474.853 46.6213 477.242 51.144C479.717 55.6667 480.954 61.1707 480.954 67.656V109H469.434V69.32C469.434 62.3227 467.685 56.9893 464.186 53.32C460.687 49.5653 455.909 47.688 449.85 47.688C443.706 47.688 438.799 49.608 435.13 53.448C431.546 57.288 429.754 62.8773 429.754 70.216V109H418.106V14.28H429.754V48.84C432.058 45.256 435.215 42.4827 439.226 40.52C443.322 38.5573 447.887 37.576 452.922 37.576ZM563.981 71.24C563.981 73.4587 563.853 75.8053 563.597 78.28H507.533C507.96 85.192 510.306 90.6107 514.573 94.536C518.925 98.376 524.173 100.296 530.317 100.296C535.352 100.296 539.533 99.144 542.861 96.84C546.274 94.4507 548.664 91.2933 550.029 87.368H562.573C560.696 94.1093 556.941 99.6133 551.309 103.88C545.677 108.061 538.68 110.152 530.317 110.152C523.661 110.152 517.688 108.659 512.397 105.672C507.192 102.685 503.096 98.4613 500.109 93C497.122 87.4533 495.629 81.0533 495.629 73.8C495.629 66.5467 497.08 60.1893 499.981 54.728C502.882 49.2667 506.936 45.0853 512.141 42.184C517.432 39.1973 523.49 37.704 530.317 37.704C536.973 37.704 542.861 39.1547 547.981 42.056C553.101 44.9573 557.026 48.968 559.757 54.088C562.573 59.1227 563.981 64.84 563.981 71.24ZM551.949 68.808C551.949 64.3707 550.968 60.5733 549.005 57.416C547.042 54.1733 544.354 51.7413 540.941 50.12C537.613 48.4133 533.901 47.56 529.805 47.56C523.917 47.56 518.882 49.4373 514.701 53.192C510.605 56.9467 508.258 62.152 507.661 68.808H551.949ZM398.52 176.176C403.555 177.115 407.693 179.632 410.936 183.728C414.179 187.824 415.8 192.517 415.8 197.808C415.8 202.587 414.605 206.811 412.216 210.48C409.912 214.064 406.541 216.88 402.104 218.928C397.667 220.976 392.419 222 386.36 222H347.832V132.656H384.696C390.755 132.656 395.96 133.637 400.312 135.6C404.749 137.563 408.077 140.293 410.296 143.792C412.6 147.291 413.752 151.259 413.752 155.696C413.752 160.901 412.344 165.253 409.528 168.752C406.797 172.251 403.128 174.725 398.52 176.176ZM365.752 169.52H382.136C386.403 169.52 389.688 168.581 391.992 166.704C394.296 164.741 395.448 161.968 395.448 158.384C395.448 154.8 394.296 152.027 391.992 150.064C389.688 148.101 386.403 147.12 382.136 147.12H365.752V169.52ZM383.8 207.408C388.152 207.408 391.523 206.384 393.912 204.336C396.387 202.288 397.624 199.387 397.624 195.632C397.624 191.792 396.344 188.805 393.784 186.672C391.224 184.453 387.768 183.344 383.416 183.344H365.752V207.408H383.8ZM484.866 204.976H449.282L443.394 222H424.578L456.706 132.528H477.57L509.698 222H490.754L484.866 204.976ZM480.002 190.64L467.074 153.264L454.146 190.64H480.002ZM598.123 222H580.203L539.627 160.688V222H521.707V132.528H539.627L580.203 193.968V132.528H598.123V222ZM666.264 222L633.752 182.192V222H615.832V132.656H633.752V172.72L666.264 132.656H687.896L651.032 176.944L688.92 222H666.264ZM718.627 132.656V222H700.707V132.656H718.627ZM767.18 222.896C760.951 222.896 755.319 221.829 750.284 219.696C745.335 217.563 741.409 214.491 738.508 210.48C735.607 206.469 734.113 201.733 734.028 196.272H753.228C753.484 199.941 754.764 202.843 757.068 204.976C759.457 207.109 762.7 208.176 766.796 208.176C770.977 208.176 774.263 207.195 776.652 205.232C779.041 203.184 780.236 200.539 780.236 197.296C780.236 194.651 779.425 192.475 777.804 190.768C776.183 189.061 774.135 187.739 771.66 186.8C769.271 185.776 765.943 184.667 761.676 183.472C755.873 181.765 751.137 180.101 747.468 178.48C743.884 176.773 740.769 174.256 738.124 170.928C735.564 167.515 734.284 162.992 734.284 157.36C734.284 152.069 735.607 147.461 738.252 143.536C740.897 139.611 744.609 136.624 749.388 134.576C754.167 132.443 759.628 131.376 765.772 131.376C774.988 131.376 782.455 133.637 788.172 138.16C793.975 142.597 797.175 148.827 797.772 156.848H778.06C777.889 153.776 776.567 151.259 774.092 149.296C771.703 147.248 768.503 146.224 764.492 146.224C760.993 146.224 758.177 147.12 756.044 148.912C753.996 150.704 752.972 153.307 752.972 156.72C752.972 159.109 753.74 161.115 755.276 162.736C756.897 164.272 758.86 165.552 761.164 166.576C763.553 167.515 766.881 168.624 771.148 169.904C776.951 171.611 781.687 173.317 785.356 175.024C789.025 176.731 792.183 179.291 794.828 182.704C797.473 186.117 798.796 190.597 798.796 196.144C798.796 200.923 797.559 205.36 795.084 209.456C792.609 213.552 788.983 216.837 784.204 219.312C779.425 221.701 773.751 222.896 767.18 222.896ZM875.132 132.656V147.12H851.324V222H833.404V147.12H809.596V132.656H875.132Z" fill="#00F180"/>
<defs>
<radialGradient id="paint0_radial_935_10" cx="0" cy="0" r="1" gradientUnits="userSpaceOnUse" gradientTransform="translate(121 121) rotate(-180) scale(121)">
<stop stop-color="#94FF37"/>
<stop offset="1" stop-color="#00F180"/>
</radialGradient>
<radialGradient id="paint1_radial_935_10" cx="0" cy="0" r="1" gradientUnits="userSpaceOnUse" gradientTransform="translate(121 121) rotate(-180) scale(121)">
<stop stop-color="#94FF37"/>
<stop offset="1" stop-color="#00F180"/>
</radialGradient>
<radialGradient id="paint2_radial_935_10" cx="0" cy="0" r="1" gradientUnits="userSpaceOnUse" gradientTransform="translate(121 121) rotate(-180) scale(121)">
<stop stop-color="#94FF37"/>
<stop offset="1" stop-color="#00F180"/>
</radialGradient>
<radialGradient id="paint3_radial_935_10" cx="0" cy="0" r="1" gradientUnits="userSpaceOnUse" gradientTransform="translate(121 121) rotate(-180) scale(121)">
<stop stop-color="#94FF37"/>
<stop offset="1" stop-color="#00F180"/>
</radialGradient>
</defs>
</svg>
